# xmcd
#
# Track frame offsets:
#	150
#	4051
#	22531
#	41248
#	58363
#	76613
#	94693
#	99865
#	118311
#	139473
#	157214
#	176005
#	196649
#	219319
#	233669
#	251731
#	272917
#
# Disc length: 4039 seconds
#
# Revision: 0
# Processed by: cddbd v1.5.2PL0 Copyright (c) Steve Scherf et al.
# Submitted via: EasyCDDAExtractor 15.3.0.1
#
DISCID=e30fc511
DTITLE=성훈 - Lyrics within my story
DYEAR=2011
DGENRE=R&B
TTITLE0=Intro (My old piano)
TTITLE1=So good bye
TTITLE2=Marry me
TTITLE3=그와 그녀 (Duet with 정인)
TTITLE4=Fall in love (Feat. E-Sens of Supreme Team)
TTITLE5=A song for you
TTITLE6=Interlude (When I was a little boy)
TTITLE7=언제까지나 (Duet with LISA)
TTITLE8=잊지마요
TTITLE9=My love is...
TTITLE10=Dear. Mom
TTITLE11=Blue Christmas
TTITLE12=Saviour, like a shepherd lead us (From "I am melody 2")
TTITLE13=Outro (Overcome)
TTITLE14=Round and Round (Dhstyle Mix)
TTITLE15=A song for you (Extended version)
TTITLE16=With Chocolate (Live version)
EXTD=YEAR: 2011\n
EXTT0=
EXTT1=
EXTT2=
EXTT3=
EXTT4=
EXTT5=
EXTT6=
EXTT7=
EXTT8=
EXTT9=
EXTT10=
EXTT11=
EXTT12=
EXTT13=
EXTT14=
EXTT15=
EXTT16=
PLAYORDER=
